<svg xmlns="http://www.w3.org/2000/svg" width="137.199" height="116.091" viewBox="0 0 137.199 116.091">
  <g id="Сгруппировать_63" data-name="Сгруппировать 63" transform="translate(-2651.223 -1432.055)">
    <path id="Контур_60" data-name="Контур 60" d="M2661.256,1497.693h7.712v7.71a1.638,1.638,0,0,0,1.637,1.638h11.019a1.637,1.637,0,0,0,1.638-1.638v-7.71h7.71a1.639,1.639,0,0,0,1.638-1.639v-11.017a1.638,1.638,0,0,0-1.638-1.638h-7.71v-7.712a1.637,1.637,0,0,0-1.638-1.638H2670.6a1.638,1.638,0,0,0-1.637,1.638v7.712h-7.712a1.637,1.637,0,0,0-1.638,1.638v11.017A1.638,1.638,0,0,0,2661.256,1497.693Zm1.638-11.021h7.71a1.636,1.636,0,0,0,1.637-1.636v-7.713h7.744v7.713a1.637,1.637,0,0,0,1.638,1.636h7.713v7.745h-7.713a1.638,1.638,0,0,0-1.638,1.636v7.712h-7.744v-7.712a1.636,1.636,0,0,0-1.637-1.636h-7.71Z" transform="translate(4.196 20.987)" fill="#7b7b7b"/>
    <path id="Контур_61" data-name="Контур 61" d="M2779.148,1442.057a30.245,30.245,0,0,0-44.943,0l-10.014,10.773-10.015-10.773a30.48,30.48,0,0,0-22.469-10h0a30.483,30.483,0,0,0-22.473,10,35.806,35.806,0,0,0-5.77,39.486,51.043,51.043,0,0,1-10.594,1.123,1.638,1.638,0,0,0-1.638,1.638v26.018c0,.248,0,.515,0,.8-.056,6.869-.2,25.118,28.376,36.746a1.653,1.653,0,0,0,1.236,0c13.57-5.522,20.661-12.538,24.362-19.117l17.546,18.875a1.653,1.653,0,0,0,1.441.5,1.454,1.454,0,0,0,.242.02,1.646,1.646,0,0,0,1.2-.523l50.681-54.521a1.638,1.638,0,0,0-2.4-2.23l-49.723,53.492-17.443-18.765a34.915,34.915,0,0,0,2.473-14.479c0-.283,0-.55,0-.8V1484.3a1.638,1.638,0,0,0-1.638-1.638,50.464,50.464,0,0,1-26.417-7.379,1.641,1.641,0,0,0-1.872,0,46.237,46.237,0,0,1-12.577,5.456,32.5,32.5,0,0,1,4.92-36.456,26.972,26.972,0,0,1,40.146,0l11.212,12.064a1.64,1.64,0,0,0,2.4,0l11.212-12.064a26.971,26.971,0,0,1,40.146,0,32.46,32.46,0,0,1,3.624,38.776l-16.026.031-7.4-14.656a1.638,1.638,0,0,0-3.074.451l-4.979,28.22-6.428-39.286a1.637,1.637,0,0,0-3.238.038l-5.189,37.062-3.433-11.154a1.636,1.636,0,0,0-1.565-1.155h0l-13.028,0a1.637,1.637,0,1,0,0,3.274h0l11.819,0,5.243,17.034a1.637,1.637,0,0,0,3.186-.255l4.714-33.671,6.242,38.143a1.635,1.635,0,0,0,1.606,1.372h.011a1.636,1.636,0,0,0,1.61-1.351l5.8-32.853,5.633,11.164a1.634,1.634,0,0,0,1.464.9l17.753-.036a1.639,1.639,0,0,0,1.539-.729A35.767,35.767,0,0,0,2779.148,1442.057Zm-98.924,36.519a53.8,53.8,0,0,0,25.716,7.34v24.406c0,.257,0,.532,0,.825a31.215,31.215,0,0,1-2.567,14.075c-.017.031-.031.064-.046.1-3,6.444-9.418,13.558-23.107,19.26-25.9-10.788-25.775-26.634-25.721-33.431,0-.292,0-.568,0-.825v-24.406A53.791,53.791,0,0,0,2680.224,1478.576Z" transform="translate(0 0)" fill="#7b7b7b"/>
  </g>
</svg>
