<svg xmlns="http://www.w3.org/2000/svg" width="98.836" height="117.067" viewBox="0 0 98.836 117.067">
  <g id="Сгруппировать_73" data-name="Сгруппировать 73" transform="translate(-1383.749 -364.728)">
    <g id="Сгруппировать_64" data-name="Сгруппировать 64" transform="translate(1400.396 365.002)">
      <path id="Контур_62" data-name="Контур 62" d="M1421.837,403.244a1.821,1.821,0,0,1-1.821-1.821v-34.6a1.821,1.821,0,1,1,3.642,0v34.6A1.821,1.821,0,0,1,1421.837,403.244Z" transform="translate(-1420.016 -365.004)" fill="#7b7b7b" stroke="#36393b" stroke-width="0.5"/>
    </g>
    <g id="Сгруппировать_65" data-name="Сгруппировать 65" transform="translate(1393.112 365.002)">
      <path id="Контур_63" data-name="Контур 63" d="M1405.837,403.244a1.821,1.821,0,0,1-1.821-1.821v-34.6a1.821,1.821,0,1,1,3.642,0v34.6A1.821,1.821,0,0,1,1405.837,403.244Z" transform="translate(-1404.016 -365.004)" fill="#7b7b7b" stroke="#36393b" stroke-width="0.5"/>
    </g>
    <g id="Сгруппировать_66" data-name="Сгруппировать 66" transform="translate(1400.397 365)">
      <path id="Контур_64" data-name="Контур 64" d="M1423.272,466.977a1.821,1.821,0,0,1-1.819-1.77l-1.436-50.988a1.82,1.82,0,0,1,1.159-1.748c4.854-1.892,8.121-6.408,7.946-10.98l-1.82-34.573a1.82,1.82,0,0,1,1.722-1.914,1.8,1.8,0,0,1,1.914,1.722l1.821,34.6c.22,5.728-3.457,11.319-9.068,14.02l1.4,49.759a1.821,1.821,0,0,1-1.769,1.872Z" transform="translate(-1420.016 -365)" fill="#7b7b7b" stroke="#36393b" stroke-width="0.5"/>
    </g>
    <g id="Сгруппировать_67" data-name="Сгруппировать 67" transform="translate(1384 365.002)">
      <path id="Контур_65" data-name="Контур 65" d="M1398.575,481.547a7.4,7.4,0,0,1-5.281-2.221,7,7,0,0,1-2-5.112l1.782-58.8a15.4,15.4,0,0,1-9.065-14.063l1.822-34.625a1.821,1.821,0,0,1,3.637.193l-1.821,34.6a11.54,11.54,0,0,0,7.831,10.913,1.822,1.822,0,0,1,1.275,1.793l-1.821,60.093a3.386,3.386,0,0,0,.971,2.468,3.949,3.949,0,0,0,5.464-.082,2.5,2.5,0,0,0,.738-1.868l-.119-4.163a1.821,1.821,0,0,1,1.769-1.872,1.754,1.754,0,0,1,1.871,1.769l.115,4.078a6.047,6.047,0,0,1-1.7,4.533A7.464,7.464,0,0,1,1398.575,481.547Z" transform="translate(-1384 -365.003)" fill="#7b7b7b" stroke="#36393b" stroke-width="0.5"/>
    </g>
    <g id="Сгруппировать_68" data-name="Сгруппировать 68" transform="translate(1429.53 430.555)">
      <path id="Контур_66" data-name="Контур 66" d="M1491.293,559.987c-4.161,0-6.967-3.622-7.276-7.124a1.845,1.845,0,0,1-.006-.219l1.351-41.882A1.8,1.8,0,0,1,1487.24,509a1.822,1.822,0,0,1,1.762,1.879l-1.347,41.763c.2,1.8,1.63,3.7,3.638,3.7a3.744,3.744,0,0,0,2.671-1.119,3.389,3.389,0,0,0,.972-2.474l-.295-9.1a1.821,1.821,0,1,1,3.64-.117l.295,9.1a7.011,7.011,0,0,1-2,5.122A7.4,7.4,0,0,1,1491.293,559.987Z" transform="translate(-1484.01 -508.997)" fill="#7b7b7b" stroke="#36393b" stroke-width="0.5"/>
    </g>
    <g id="Сгруппировать_69" data-name="Сгруппировать 69" transform="translate(1416.784 365.002)">
      <path id="Контур_67" data-name="Контур 67" d="M1481.033,461.516a1.821,1.821,0,0,1-1.819-1.763l-1.351-41.882a1.821,1.821,0,0,1,1.3-1.805c7.559-2.233,13.261-12.442,13.261-23.747,0-13.054-7.352-23.673-16.387-23.673s-16.387,10.62-16.387,23.673c0,10.934,5.734,21.154,13.339,23.772a1.82,1.82,0,0,1,1.227,1.78l-.295,9.1a1.821,1.821,0,0,1-3.64-.117l.253-7.824c-8.366-3.715-14.526-14.892-14.526-26.717,0-15.062,8.985-27.315,20.029-27.315s20.029,12.253,20.029,27.315c0,12.421-6.03,23.385-14.525,26.773l1.308,40.544a1.821,1.821,0,0,1-1.761,1.878Z" transform="translate(-1456.012 -365.004)" fill="#7b7b7b" stroke="#36393b" stroke-width="0.5"/>
    </g>
    <g id="Сгруппировать_70" data-name="Сгруппировать 70" transform="translate(1439.986 459.635)">
      <rect id="Прямоугольник_15" data-name="Прямоугольник 15" width="3.642" height="5.466" transform="translate(0 0.117) rotate(-1.846)" fill="#7b7b7b" stroke="#36393b" stroke-width="0.5"/>
    </g>
    <g id="Сгруппировать_71" data-name="Сгруппировать 71" transform="translate(1434.992 372.286)">
      <path id="Контур_68" data-name="Контур 68" d="M1508.754,402.855a1.821,1.821,0,0,1-1.821-1.821c0-10.154-5.3-16.389-9.1-16.389a1.821,1.821,0,1,1,0-3.642c6.156,0,12.746,8.049,12.746,20.031A1.821,1.821,0,0,1,1508.754,402.855Z" transform="translate(-1496.008 -381.003)" fill="#7b7b7b" stroke="#36393b" stroke-width="0.5"/>
    </g>
    <g id="Сгруппировать_72" data-name="Сгруппировать 72" transform="translate(1460.484 365.002)">
      <path id="Контур_69" data-name="Контур 69" d="M1566.571,481.547a7.293,7.293,0,0,1-7.284-7.284l1.723-32.777h-7.185a1.821,1.821,0,0,1-1.821-1.821V417.812c0-14.376,2.511-26.876,7.463-37.156a1.821,1.821,0,0,1,3.281,1.581c-4.712,9.782-7.1,21.752-7.1,35.575v20.031h7.283a1.82,1.82,0,0,1,1.818,1.917l-1.821,34.6a3.644,3.644,0,0,0,7.286-.1V370.989a41.028,41.028,0,0,0-4.512,5.916,1.821,1.821,0,0,1-3.075-1.951c4.252-6.7,8.2-9.505,8.363-9.621a1.821,1.821,0,0,1,2.866,1.492V474.263A7.292,7.292,0,0,1,1566.571,481.547Z" transform="translate(-1552.004 -365.004)" fill="#7b7b7b" stroke="#36393b" stroke-width="0.5"/>
    </g>
  </g>
</svg>
