<svg xmlns="http://www.w3.org/2000/svg" width="205.302" height="116.855" viewBox="0 0 205.302 116.855">
  <g id="Сгруппировать_5" data-name="Сгруппировать 5" transform="translate(-14.173 -47.793)">
    <path id="Контур_1" data-name="Контур 1" d="M31.269,69.813,17.176,82.844H35.207L31.269,77.97Z" transform="translate(4.602 33.742)" fill="#fff"/>
    <path id="Контур_2" data-name="Контур 2" d="M17.837,110.881,62.45,70.314l.116.017L85.418,48.156h-30.7l3.627,5.181L35.87,75.642V53.182l3.938-5.026H14.173l3.664,5.26Z" transform="translate(0 0.556)" fill="#fff"/>
    <path id="Контур_3" data-name="Контур 3" d="M26.458,73.435,39.228,89.558l-3.76,5.082H65.96L38.986,62.115Z" transform="translate(18.824 21.946)" fill="#fff"/>
    <path id="Контур_4" data-name="Контур 4" d="M66.807,63.24,83.349,48.156H63.415l3.393,5.024Z" transform="translate(75.455 0.557)" fill="#fff"/>
    <path id="Контур_5" data-name="Контур 5" d="M95.088,72.288v15.1L63.947,48.156H44.859l3.577,5.587v57.271l-3.577,5.015h21.41l-3.72-5.109V76.248l33.114,39.781H109.2V59.114Z" transform="translate(47.021 0.557)" fill="#fff"/>
    <path id="Контур_6" data-name="Контур 6" d="M77.641,82.739,91.928,69.671l-18.03.04,3.724,4.87Z" transform="translate(91.52 33.525)" fill="#fff"/>
    <path id="Контур_7" data-name="Контур 7" d="M41.869,98.491,39.1,94.653l-1.5,1.813v2.025h-.41V90.959h.41v4.849l4.064-4.849h.507L39.4,94.3l2.989,4.189Z" transform="translate(35.267 66.145)" fill="#fff"/>
    <path id="Контур_8" data-name="Контур 8" d="M45.261,95.9,43.44,91.477l-1.8,4.419Zm.185.451H41.465l-.874,2.147h-.448l3.084-7.536h.438l3.115,7.536H46.33Z" transform="translate(39.795 66.144)" fill="#fff"/>
    <path id="Контур_9" data-name="Контур 9" d="M44.5,90.959,49.042,97.8V90.959h.4v7.533h-.476l-4.535-6.845v6.845h-.408V90.959Z" transform="translate(45.74 66.145)" fill="#fff"/>
    <path id="Контур_10" data-name="Контур 10" d="M51.09,91.383a3.351,3.351,0,0,0,0,6.685,3.046,3.046,0,0,0,2.14-.917l.253.314a3.392,3.392,0,0,1-2.4,1.046,3.79,3.79,0,0,1,0-7.559,3.41,3.41,0,0,1,2.393,1.015l-.243.344a2.993,2.993,0,0,0-2.14-.929" transform="translate(51.172 66.136)" fill="#fff"/>
    <path id="Контур_11" data-name="Контур 11" d="M55.708,90.959v.44H51.73v3.01h3.54v.45H51.73v3.19h4.1v.443H51.322V90.959Z" transform="translate(56.925 66.145)" fill="#fff"/>
    <path id="Контур_12" data-name="Контур 12" d="M54.984,90.959v7.09h3.026v.443H54.576V90.959Z" transform="translate(61.911 66.145)" fill="#fff"/>
    <path id="Контур_13" data-name="Контур 13" d="M61.99,95.9l-1.818-4.419-1.8,4.419Zm.185.451H58.2l-.876,2.147h-.448l3.084-7.536h.438l3.112,7.536h-.446Z" transform="translate(65.429 66.144)" fill="#fff"/>
    <path id="Контур_14" data-name="Контур 14" d="M63.164,95.539a1.958,1.958,0,0,0,2.228-2.089c0-1.327-.808-2.051-2.228-2.051h-2v4.14Zm2.17,2.953-1.606-2.555a3.218,3.218,0,0,1-.572.046h-2v2.51h-.408V90.958h2.4a2.33,2.33,0,0,1,2.636,2.479,2.268,2.268,0,0,1-1.674,2.426l1.7,2.629Z" transform="translate(71.376 66.144)" fill="#fff"/>
    <rect id="Прямоугольник_4" data-name="Прямоугольник 4" width="0.408" height="7.535" transform="translate(141.096 157.101)" fill="#fff"/>
    <path id="Контур_15" data-name="Контур 15" d="M70.833,95.9l-1.818-4.419-1.8,4.419Zm.185.451H67.039l-.876,2.147h-.448L68.8,90.958h.438l3.112,7.536H71.9Z" transform="translate(78.98 66.144)" fill="#fff"/>
    <path id="Контур_16" data-name="Контур 16" d="M17.583,82.093,24.248,92v-9.9H26.31V95.878H24.248l-6.629-9.885v9.885h-2.1V82.093Z" transform="translate(2.067 52.56)" fill="#fff"/>
    <path id="Контур_17" data-name="Контур 17" d="M28.56,90.239v-.962H26c-1.335,0-1.958.393-1.958,1.4,0,.945.694,1.56,1.831,1.56a2.47,2.47,0,0,0,2.684-1.993m.018,3.685V92.645a3.663,3.663,0,0,1-3.127,1.378,3.133,3.133,0,0,1-3.325-3.252c0-1.909,1.3-3.13,3.573-3.15H28.56V87.3A1.973,1.973,0,0,0,26.3,85.2a4.674,4.674,0,0,0-2.791,1.064l-.836-1.578a6.449,6.449,0,0,1,4.069-1.317c2.436,0,3.8,1.378,3.821,3.685l.018,6.87Z" transform="translate(12.185 54.515)" fill="#fff"/>
    <path id="Контур_18" data-name="Контур 18" d="M29.346,83.4,31.8,91.63,34.18,83.4H36.3l2.4,8.23,2.416-8.23h2.081L39.743,93.875H37.629l-2.4-7.755-2.4,7.755h-2.1L27.249,83.4Z" transform="translate(20.036 54.562)" fill="#fff"/>
    <path id="Контур_19" data-name="Контур 19" d="M40.864,83.369v2.165a2.958,2.958,0,0,0-3.269,2.912v5.477H35.551V83.448h2.044v2.087a3.407,3.407,0,0,1,3.269-2.165" transform="translate(32.758 54.515)" fill="#fff"/>
    <path id="Контур_20" data-name="Контур 20" d="M41.412,88.7c0,2.031,1.19,3.409,2.894,3.409s2.882-1.378,2.882-3.409c0-2.008-1.19-3.406-2.882-3.406s-2.894,1.4-2.894,3.406m7.82-.041c0,3.17-2.008,5.338-4.925,5.338s-4.938-2.168-4.938-5.338c0-3.15,2.008-5.293,4.938-5.293s4.925,2.142,4.925,5.293" transform="translate(38.607 54.516)" fill="#fff"/>
    <path id="Контур_21" data-name="Контур 21" d="M50.01,85.357c-1.633,0-2.811,1.36-2.811,3.348s1.178,3.348,2.811,3.348A3.363,3.363,0,0,0,52.8,90.794l1.137,1.259A4.615,4.615,0,0,1,49.921,94c-2.808,0-4.763-2.147-4.763-5.3,0-3.171,1.955-5.336,4.763-5.336a4.763,4.763,0,0,1,3.91,1.712L52.712,86.54a3.405,3.405,0,0,0-2.7-1.183" transform="translate(47.479 54.515)" fill="#fff"/>
    <path id="Контур_22" data-name="Контур 22" d="M54.548,91.572l-1.6,1.872v2.933H50.9V81.767h2.046v8.821L57.126,85.9h2.348l-3.5,4.056,3.769,6.42H57.322Z" transform="translate(56.285 52.06)" fill="#fff"/>
    <path id="Контур_23" data-name="Контур 23" d="M58.582,96.506H56.554V86.03h2.028Zm.177-13.467a1.2,1.2,0,1,1-1.188-1.357,1.24,1.24,0,0,1,1.188,1.357" transform="translate(64.674 51.93)" fill="#fff"/>
    <path id="Контур_24" data-name="Контур 24" d="M71.171,84.148c-1.226,0-2.026.509-2.026,1.436,0,3.014,6.718,1.4,6.7,6.364,0,2.456-1.955,3.973-4.692,3.973a7.253,7.253,0,0,1-5.082-2.185l.907-2.008a6.255,6.255,0,0,0,4.211,2.008c1.459,0,2.327-.608,2.327-1.671,0-3.072-6.718-1.36-6.718-6.265,0-2.363,1.831-3.839,4.533-3.839a7.558,7.558,0,0,1,4.356,1.418l-.871,2.049a6.919,6.919,0,0,0-3.644-1.279" transform="translate(79.525 52.356)" fill="#fff"/>
    <path id="Контур_25" data-name="Контур 25" d="M77.7,87.341l-1.991.65v8.29H73.662V88.642l-1.992.65V87.658l1.992-.65V81.673h2.044v4.684l1.991-.65Z" transform="translate(88.106 51.916)" fill="#fff"/>
    <path id="Контур_26" data-name="Контур 26" d="M82.153,90.149v-.967H79.6c-1.335,0-1.96.393-1.96,1.4,0,.945.7,1.552,1.833,1.552a2.471,2.471,0,0,0,2.684-1.985m.018,3.68V92.547a3.655,3.655,0,0,1-3.127,1.38,3.13,3.13,0,0,1-3.322-3.246c0-1.909,1.294-3.133,3.568-3.15h2.864v-.317A1.974,1.974,0,0,0,79.9,85.1a4.662,4.662,0,0,0-2.791,1.066l-.836-1.578a6.468,6.468,0,0,1,4.067-1.319c2.434,0,3.8,1.378,3.824,3.682l.015,6.873Z" transform="translate(94.313 54.369)" fill="#fff"/>
    <path id="Контур_27" data-name="Контур 27" d="M90.592,87.313v6.516H88.546V87.941A2.226,2.226,0,0,0,86.272,85.4a2.786,2.786,0,0,0-2.684,2.854v5.571H81.544V83.355h2.044v2.008a3.514,3.514,0,0,1,3.485-2.089c2.2,0,3.52,1.535,3.52,4.039" transform="translate(103.236 54.369)" fill="#fff"/>
    <path id="Контур_28" data-name="Контур 28" d="M89.736,96.418H87.712V85.942h2.023Zm.18-13.472a1.2,1.2,0,1,1-1.19-1.36,1.247,1.247,0,0,1,1.19,1.36" transform="translate(112.408 51.783)" fill="#fff"/>
    <path id="Контур_29" data-name="Контур 29" d="M97.124,90.149v-.967H94.561c-1.332,0-1.955.393-1.955,1.4,0,.945.694,1.552,1.833,1.552a2.469,2.469,0,0,0,2.684-1.985m.015,3.68V92.547a3.653,3.653,0,0,1-3.125,1.38,3.129,3.129,0,0,1-3.325-3.246c0-1.909,1.3-3.133,3.573-3.15h2.862v-.317A1.975,1.975,0,0,0,94.865,85.1a4.662,4.662,0,0,0-2.791,1.066l-.836-1.578a6.465,6.465,0,0,1,4.069-1.319c2.439,0,3.806,1.378,3.824,3.682l.015,6.873Z" transform="translate(117.249 54.369)" fill="#fff"/>
    <path id="Контур_30" data-name="Контур 30" d="M61.167,91.176l8.448-7.965h-9.5l1.416,1.973Z" transform="translate(70.404 54.272)" fill="#fff"/>
    <path id="Контур_31" data-name="Контур 31" d="M110.06,76.383q-17.823-5.709-17.823-9.919C92.379,63.689,94.6,62.3,99.1,62.3q11.027,0,25.706,7.255V47.793l-4.632,4.776c-8.05-3.029-14.548-4.538-19.585-4.538-6.645,0-12.279,1.134-16.954,3.414Q73.8,56.964,73.814,66.839a20.827,20.827,0,0,0,4.315,13.145Q83.7,86.028,95.319,90q13.937,4.543,13.938,8.846c0,3.024-2.434,4.538-7.222,4.538-.177,0-.36-.005-.537-.008l-12.958,12.1a53.885,53.885,0,0,0,14.148,2.175q25.382,0,25.4-20.867,0-13.245-18.025-20.4" transform="translate(91.39)" fill="#fff"/>
  </g>
</svg>
