<svg xmlns="http://www.w3.org/2000/svg" width="160.591" height="91.406" viewBox="0 0 160.591 91.406">
  <g id="Сгруппировать_58" data-name="Сгруппировать 58" transform="translate(-14.173 -47.793)">
    <path id="Контур_1" data-name="Контур 1" d="M28.2,69.813,17.176,80.006h14.1L28.2,76.193Z" transform="translate(2.945 21.598)" fill="#747575"/>
    <path id="Контур_2" data-name="Контур 2" d="M17.039,97.22l34.9-31.732.091.014L69.9,48.156H45.886l2.837,4.053L31.145,69.656V52.087l3.081-3.932H14.173l2.866,4.115Z" transform="translate(0 0.356)" fill="#747575"/>
    <path id="Контур_3" data-name="Контур 3" d="M26.458,70.969l9.989,12.611-2.941,3.975H57.357l-21.1-25.442Z" transform="translate(12.049 14.047)" fill="#747575"/>
    <path id="Контур_4" data-name="Контур 4" d="M66.069,59.955l12.939-11.8H63.415l2.654,3.93Z" transform="translate(48.298 0.356)" fill="#747575"/>
    <path id="Контур_5" data-name="Контур 5" d="M84.149,67.032v11.81L59.79,48.156H44.859l2.8,4.37v44.8l-2.8,3.923H61.606l-2.909-4V70.13l25.9,31.117H95.188V56.728Z" transform="translate(30.098 0.356)" fill="#747575"/>
    <path id="Контур_6" data-name="Контур 6" d="M76.826,79.893,88,69.671,73.9,69.7l2.913,3.81Z" transform="translate(58.581 21.459)" fill="#747575"/>
    <path id="Контур_7" data-name="Контур 7" d="M40.849,96.851l-2.168-3L37.51,95.266v1.584h-.321V90.959h.321v3.793l3.179-3.793h.4l-2.17,2.615,2.338,3.277Z" transform="translate(22.574 42.339)" fill="#747575"/>
    <path id="Контур_8" data-name="Контур 8" d="M44.146,94.821l-1.424-3.457-1.406,3.457Zm.145.353H41.177l-.683,1.68h-.351l2.413-5.895H42.9l2.436,5.895h-.353Z" transform="translate(25.472 42.338)" fill="#747575"/>
    <path id="Контур_9" data-name="Контур 9" d="M44.4,90.959l3.554,5.354V90.959h.313v5.892H47.89L44.342,91.5v5.355h-.319V90.959Z" transform="translate(29.278 42.339)" fill="#747575"/>
    <path id="Контур_10" data-name="Контур 10" d="M50.323,91.29a2.621,2.621,0,0,0,0,5.229A2.383,2.383,0,0,0,52,95.8l.2.246a2.653,2.653,0,0,1-1.88.818,2.964,2.964,0,0,1,0-5.913,2.667,2.667,0,0,1,1.872.794l-.19.269a2.341,2.341,0,0,0-1.674-.727" transform="translate(32.755 42.333)" fill="#747575"/>
    <path id="Контур_11" data-name="Контур 11" d="M54.753,90.959V91.3H51.641v2.354H54.41v.352H51.641v2.5h3.21v.346H51.322V90.959Z" transform="translate(36.437 42.339)" fill="#747575"/>
    <path id="Контур_12" data-name="Контур 12" d="M54.895,90.959V96.5h2.367v.346H54.576V90.959Z" transform="translate(39.629 42.339)" fill="#747575"/>
    <path id="Контур_13" data-name="Контур 13" d="M60.875,94.821l-1.422-3.457-1.408,3.457Zm.145.353H57.908l-.685,1.68h-.351l2.413-5.895h.343l2.434,5.895h-.349Z" transform="translate(41.881 42.338)" fill="#747575"/>
    <path id="Контур_14" data-name="Контур 14" d="M62.639,94.541a1.532,1.532,0,0,0,1.743-1.634c0-1.038-.632-1.6-1.743-1.6H61.072v3.239Zm1.7,2.31-1.256-2a2.517,2.517,0,0,1-.448.036H61.072v1.963h-.319V90.958h1.88A1.822,1.822,0,0,1,64.695,92.9a1.774,1.774,0,0,1-1.309,1.9l1.331,2.056Z" transform="translate(45.688 42.338)" fill="#747575"/>
    <rect id="Прямоугольник_4" data-name="Прямоугольник 4" width="0.319" height="5.894" transform="translate(113.455 133.295)" fill="#747575"/>
    <path id="Контур_15" data-name="Контур 15" d="M69.718,94.821,68.3,91.364l-1.408,3.457Zm.145.353H66.751l-.685,1.68h-.351l2.413-5.895h.343L70.9,96.853h-.349Z" transform="translate(50.554 42.338)" fill="#747575"/>
    <path id="Контур_16" data-name="Контур 16" d="M17.134,82.093l5.213,7.747V82.093h1.613V92.876H22.348l-5.185-7.732v7.732h-1.64V82.093Z" transform="translate(1.323 33.643)" fill="#747575"/>
    <path id="Контур_17" data-name="Контур 17" d="M27.158,88.743V87.99h-2c-1.044,0-1.531.307-1.531,1.091,0,.739.543,1.22,1.432,1.22a1.932,1.932,0,0,0,2.1-1.559m.014,2.882v-1A2.865,2.865,0,0,1,24.726,91.7a2.451,2.451,0,0,1-2.6-2.543c0-1.494,1.016-2.448,2.795-2.464h2.238v-.248A1.543,1.543,0,0,0,25.393,84.8a3.656,3.656,0,0,0-2.183.832L22.557,84.4a5.044,5.044,0,0,1,3.183-1.03,2.689,2.689,0,0,1,2.989,2.882l.014,5.374Z" transform="translate(7.799 34.895)" fill="#747575"/>
    <path id="Контур_18" data-name="Контур 18" d="M28.889,83.4l1.919,6.438L32.671,83.4h1.656L36.2,89.838l1.89-6.438H39.72l-2.7,8.194H35.368L33.49,85.528l-1.875,6.066H29.972L27.249,83.4Z" transform="translate(12.825 34.925)" fill="#747575"/>
    <path id="Контур_19" data-name="Контур 19" d="M39.707,83.369v1.694a2.314,2.314,0,0,0-2.557,2.278v4.285h-1.6V83.43h1.6v1.632a2.665,2.665,0,0,1,2.557-1.694" transform="translate(20.968 34.895)" fill="#747575"/>
    <path id="Контур_20" data-name="Контур 20" d="M40.967,87.542a2.371,2.371,0,0,0,2.264,2.666c1.323,0,2.254-1.078,2.254-2.666a2.29,2.29,0,1,0-4.518,0m6.117-.032c0,2.48-1.571,4.176-3.853,4.176s-3.863-1.7-3.863-4.176a3.867,3.867,0,1,1,7.715,0" transform="translate(24.712 34.896)" fill="#747575"/>
    <path id="Контур_21" data-name="Контур 21" d="M48.953,84.924a2.659,2.659,0,0,0,0,5.237,2.631,2.631,0,0,0,2.181-.984l.889.984a3.61,3.61,0,0,1-3.14,1.525c-2.2,0-3.726-1.68-3.726-4.144,0-2.48,1.529-4.174,3.726-4.174a3.726,3.726,0,0,1,3.058,1.339l-.876,1.141a2.664,2.664,0,0,0-2.114-.925" transform="translate(30.391 34.895)" fill="#747575"/>
    <path id="Контур_22" data-name="Контур 22" d="M53.755,89.437,52.505,90.9V93.2H50.9V81.767h1.6v6.9L55.771,85h1.837l-2.74,3.172L57.816,93.2H55.924Z" transform="translate(36.027 33.323)" fill="#747575"/>
    <path id="Контур_23" data-name="Контур 23" d="M58.1,93.278H56.516V85.083H58.1Zm.139-10.534a.939.939,0,1,1-.929-1.062.97.97,0,0,1,.929,1.062" transform="translate(41.397 33.24)" fill="#747575"/>
    <path id="Контур_24" data-name="Контур 24" d="M70.06,83.671c-.959,0-1.585.4-1.585,1.123,0,2.357,5.255,1.093,5.241,4.978,0,1.921-1.529,3.108-3.67,3.108a5.674,5.674,0,0,1-3.976-1.709L66.78,89.6a4.893,4.893,0,0,0,3.294,1.571c1.141,0,1.82-.475,1.82-1.307,0-2.4-5.255-1.064-5.255-4.9,0-1.848,1.432-3,3.546-3a5.912,5.912,0,0,1,3.407,1.109l-.681,1.6a5.412,5.412,0,0,0-2.85-1" transform="translate(50.904 33.513)" fill="#747575"/>
    <path id="Контур_25" data-name="Контур 25" d="M76.385,86.107l-1.557.509V93.1h-1.6V87.125l-1.558.509V86.355l1.558-.509V81.673h1.6v3.664l1.557-.509Z" transform="translate(56.396 33.231)" fill="#747575"/>
    <path id="Контур_26" data-name="Контур 26" d="M80.752,88.652V87.9h-2c-1.044,0-1.533.307-1.533,1.1,0,.739.545,1.214,1.434,1.214a1.933,1.933,0,0,0,2.1-1.553m.014,2.878v-1a2.859,2.859,0,0,1-2.446,1.08,2.448,2.448,0,0,1-2.6-2.539c0-1.494,1.012-2.45,2.791-2.464h2.24v-.248a1.544,1.544,0,0,0-1.765-1.65,3.647,3.647,0,0,0-2.183.834l-.654-1.234a5.06,5.06,0,0,1,3.181-1.032,2.692,2.692,0,0,1,2.991,2.88l.012,5.376Z" transform="translate(60.369 34.801)" fill="#747575"/>
    <path id="Контур_27" data-name="Контур 27" d="M88.622,86.433v5.1h-1.6V86.925a1.741,1.741,0,0,0-1.779-1.985,2.18,2.18,0,0,0-2.1,2.232V91.53h-1.6V83.337h1.6v1.571a2.749,2.749,0,0,1,2.726-1.634c1.723,0,2.753,1.2,2.753,3.159" transform="translate(66.08 34.801)" fill="#747575"/>
    <path id="Контур_28" data-name="Контур 28" d="M89.255,93.188H87.673V84.993h1.583ZM89.4,82.65a.941.941,0,1,1-.931-1.064A.975.975,0,0,1,89.4,82.65" transform="translate(71.952 33.146)" fill="#747575"/>
    <path id="Контур_29" data-name="Контур 29" d="M95.722,88.652V87.9h-2c-1.042,0-1.529.307-1.529,1.1,0,.739.543,1.214,1.434,1.214a1.931,1.931,0,0,0,2.1-1.553m.012,2.878v-1a2.857,2.857,0,0,1-2.444,1.08,2.447,2.447,0,0,1-2.6-2.539c0-1.494,1.014-2.45,2.795-2.464h2.238v-.248a1.545,1.545,0,0,0-1.767-1.65,3.647,3.647,0,0,0-2.183.834l-.654-1.234A5.057,5.057,0,0,1,94.3,83.274a2.69,2.69,0,0,1,2.991,2.88l.012,5.376Z" transform="translate(75.05 34.801)" fill="#747575"/>
    <path id="Контур_30" data-name="Контур 30" d="M60.939,89.441l6.608-6.231H60.119l1.107,1.544Z" transform="translate(45.065 34.739)" fill="#747575"/>
    <path id="Контур_31" data-name="Контур 31" d="M102.166,70.157Q88.225,65.691,88.225,62.4c.111-2.171,1.85-3.258,5.372-3.258q8.626,0,20.108,5.675V47.793l-3.623,3.736c-6.3-2.369-11.38-3.55-15.32-3.55A30,30,0,0,0,81.5,50.649q-7.7,4.317-7.686,12.042a16.292,16.292,0,0,0,3.375,10.283q4.356,4.727,13.446,7.834,10.9,3.554,10.9,6.919c0,2.365-1.9,3.55-5.649,3.55-.139,0-.281,0-.42-.006l-10.136,9.466a42.15,42.15,0,0,0,11.067,1.7q19.854,0,19.866-16.322,0-10.361-14.1-15.96" transform="translate(58.498)" fill="#747575"/>
  </g>
</svg>
