<svg xmlns="http://www.w3.org/2000/svg" width="106.862" height="119.333" viewBox="0 0 106.862 119.333">
  <g id="Сгруппировать_25" data-name="Сгруппировать 25" transform="translate(-1492.588 -1472.348)">
    <g id="Сгруппировать_20" data-name="Сгруппировать 20" transform="translate(1543.723 1520.241)">
      <g id="Сгруппировать_19" data-name="Сгруппировать 19" transform="translate(0 0)">
        <g id="Сгруппировать_18" data-name="Сгруппировать 18">
          <path id="Контур_49" data-name="Контур 49" d="M1687.585,1619.6h0a2.058,2.058,0,0,0-1.955-1.874l-9.068-.42c-.5-.145-3.2-13.6-16.007-13.6s-15.509,13.458-16.007,13.6l-9.068.42a2.059,2.059,0,0,0-1.955,1.874h0c-.035.4-.829-.2,2.024,10.992,3.836,15.051,12.482,25.975,25.005,31.591h0c12.523-5.616,21.17-16.54,25.005-31.591C1688.414,1619.4,1687.621,1619.994,1687.585,1619.6Z" transform="translate(-1633.399 -1603.7)" fill="none" stroke="#757676" stroke-linecap="round" stroke-linejoin="round" stroke-width="3"/>
        </g>
      </g>
    </g>
    <g id="Сгруппировать_24" data-name="Сгруппировать 24" transform="translate(1494.112 1474.069)">
      <g id="Сгруппировать_23" data-name="Сгруппировать 23">
        <line id="Линия_16" data-name="Линия 16" y2="32.404" transform="translate(36.986 83.56)" fill="none" stroke="#757676" stroke-linecap="round" stroke-linejoin="round" stroke-width="3"/>
        <circle id="Эллипс_1" data-name="Эллипс 1" cx="14.344" cy="14.344" r="14.344" transform="translate(20.53 28.317) rotate(-80.783)" fill="none" stroke="#757676" stroke-miterlimit="10" stroke-width="3"/>
        <path id="Контур_50" data-name="Контур 50" d="M1549.013,1629.963c2.658,7.946,2.083,19.768.807,27.991-1.532,9.876-1.232,32.573-1.232,32.573" transform="translate(-1529.169 -1574.437)" fill="none" stroke="#757676" stroke-linecap="round" stroke-linejoin="round" stroke-width="3"/>
        <g id="Сгруппировать_21" data-name="Сгруппировать 21" transform="translate(33.425 40.341)">
          <path id="Контур_51" data-name="Контур 51" d="M1595.077,1587.33l-3.562,4.642-3.562-4.642Z" transform="translate(-1587.953 -1587.33)" stroke="#757676" stroke-width="3"/>
        </g>
        <g id="Сгруппировать_22" data-name="Сгруппировать 22" transform="translate(33.272 44.627)">
          <path id="Контур_52" data-name="Контур 52" d="M1591.6,1599.718s.108.428.276,1.177c.089.374.187.829.295,1.35s.241,1.11.362,1.752l.4,2.073c.144.735.272,1.511.418,2.313s.274,1.631.393,2.474.235,1.7.353,2.554.3,1.711.492,2.554c.089.421.185.84.252,1.252a10.07,10.07,0,0,1,.118,1.222,9.524,9.524,0,0,1-.249,2.313,14.582,14.582,0,0,1-.6,2.072,14.176,14.176,0,0,1-1.578,3.1c-.122.187-.255.354-.363.5s-.2.269-.292.369c-.166.2-.271.308-.271.308l-.349.356h-.014l-.349-.356s-.1-.107-.271-.308c-.09-.1-.184-.224-.292-.369s-.241-.312-.363-.5a14.175,14.175,0,0,1-1.578-3.1,14.679,14.679,0,0,1-.6-2.072,9.518,9.518,0,0,1-.248-2.313,10.045,10.045,0,0,1,.118-1.222c.067-.413.163-.831.252-1.252.192-.842.379-1.7.492-2.554s.223-1.712.353-2.554.261-1.672.392-2.474.274-1.578.418-2.313.274-1.431.4-2.073.255-1.23.362-1.752.206-.976.295-1.35c.168-.749.276-1.177.276-1.177l.09-.356h.532Z" transform="translate(-1587.526 -1599.362)" fill="#757676" stroke="#757676" stroke-width="3"/>
        </g>
        <path id="Контур_53" data-name="Контур 53" d="M1646.969,1758.37c.209,7.824.109,14.828.109,14.828" transform="translate(-1592.524 -1657.107)" fill="none" stroke="#757676" stroke-linecap="round" stroke-linejoin="round" stroke-width="3"/>
        <path id="Контур_54" data-name="Контур 54" d="M1556.514,1579.771a8.913,8.913,0,0,0-7.858-4.71h-.291a38.678,38.678,0,0,0-15.09,3.058l-2.231.944-2.873-1.166a38.668,38.668,0,0,0-14.557-2.836h-.073a8.912,8.912,0,0,0-7.858,4.71l-11.245,34.148a6.454,6.454,0,0,0,4.458,8.252h0a6.454,6.454,0,0,0,7.835-4.318l7.224-23.238" transform="translate(-1494.112 -1539.089)" fill="none" stroke="#757676" stroke-linecap="round" stroke-linejoin="round" stroke-width="3"/>
      </g>
    </g>
  </g>
</svg>
